<?xml version="1.0" standalone="no"?><!DOCTYPE svg PUBLIC "-//W3C//DTD SVG 1.1//EN" "http://www.w3.org/Graphics/SVG/1.1/DTD/svg11.dtd"><svg t="1524613417714" class="icon" style="" viewBox="0 0 1178 1024" version="1.1" xmlns="http://www.w3.org/2000/svg" p-id="7859" xmlns:xlink="http://www.w3.org/1999/xlink" width="230.078125" height="200"><defs><style type="text/css"></style></defs><path d="M531.2 843.2128" p-id="7860"></path><path d="M622.8992 8.5504C901.0176 8.5504 1126.4 233.984 1126.4 512c0 278.0672-225.3824 503.4496-503.5008 503.4496-278.016 0-503.4496-225.3824-503.4496-503.4496C119.4496 233.984 344.8832 8.5504 622.8992 8.5504zM186.624 512c0 240.9984 195.328 436.2752 436.2752 436.2752 240.9984 0 436.3264-195.2768 436.3264-436.2752 0-240.9472-195.328-436.2752-436.3264-436.2752C381.952 75.7248 186.624 271.0528 186.624 512zM589.3632 193.1776l0 402.7392c0 9.3184 7.4752 16.7936 16.7936 16.7936l33.536 0c9.3184 0 16.7936-7.4752 16.7936-16.7936L656.4864 193.1776c0-9.2672-7.4752-16.7936-16.7936-16.7936l-33.536 0C596.8896 176.384 589.3632 183.9104 589.3632 193.1776zM555.776 780.4928c0 37.12 30.0544 67.2256 67.1232 67.2256 37.12 0 67.1744-30.1056 67.1744-67.2256 0-37.0176-30.0544-67.1232-67.1744-67.1232C585.8304 713.4208 555.776 743.4752 555.776 780.4928z" p-id="7861"></path></svg>